<?xml version="1.0" encoding="UTF-8" standalone="no"?>
<!DOCTYPE svg PUBLIC "-//W3C//DTD SVG 1.1//EN"
 "http://www.w3.org/Graphics/SVG/1.1/DTD/svg11.dtd">
<!-- Generated by graphviz version 2.38.0 (20140413.2041)
 -->
<!-- Title: %3 Pages: 1 -->
<svg width="255pt" height="218pt"
 viewBox="0.00 0.00 255.00 218.00" xmlns="http://www.w3.org/2000/svg" xmlns:xlink="http://www.w3.org/1999/xlink">
<g id="graph0" class="graph" transform="scale(1 1) rotate(0) translate(4 214)">
<title>%3</title>
<polygon fill="white" stroke="none" points="-4,4 -4,-214 251,-214 251,4 -4,4"/>
<!-- A -->
<g id="node1" class="node"><title>A</title>
<ellipse fill="none" stroke="black" cx="27" cy="-192" rx="27" ry="18"/>
<text text-anchor="middle" x="27" y="-188.3" font-family="Times New Roman,serif" font-size="14.00">A</text>
</g>
<!-- B -->
<g id="node2" class="node"><title>B</title>
<ellipse fill="none" stroke="black" cx="27" cy="-105" rx="27" ry="18"/>
<text text-anchor="middle" x="27" y="-101.3" font-family="Times New Roman,serif" font-size="14.00">B</text>
</g>
<!-- A&#45;&#45;B -->
<g id="edge1" class="edge"><title>A&#45;&#45;B</title>
<path fill="none" stroke="black" d="M27,-173.799C27,-159.052 27,-137.915 27,-123.175"/>
<text text-anchor="middle" x="86.5" y="-144.8" font-family="Times New Roman,serif" font-size="14.00">413.53742176800205</text>
</g>
<!-- D -->
<g id="node4" class="node"><title>D</title>
<ellipse fill="none" stroke="black" cx="94" cy="-18" rx="27" ry="18"/>
<text text-anchor="middle" x="94" y="-14.3" font-family="Times New Roman,serif" font-size="14.00">D</text>
</g>
<!-- B&#45;&#45;D -->
<g id="edge2" class="edge"><title>B&#45;&#45;D</title>
<path fill="none" stroke="black" d="M23.2492,-87.0418C21.9159,-76.7493 21.9941,-63.7609 28,-54 37.0398,-39.3085 54.5009,-30.4355 69.1931,-25.3005"/>
<text text-anchor="middle" x="84" y="-57.8" font-family="Times New Roman,serif" font-size="14.00">553.3590403838954</text>
</g>
<!-- C -->
<g id="node3" class="node"><title>C</title>
<ellipse fill="none" stroke="black" cx="162" cy="-105" rx="27" ry="18"/>
<text text-anchor="middle" x="162" y="-101.3" font-family="Times New Roman,serif" font-size="14.00">C</text>
</g>
<!-- C&#45;&#45;D -->
<g id="edge3" class="edge"><title>C&#45;&#45;D</title>
<path fill="none" stroke="black" d="M156.969,-87.0919C153.356,-76.8183 147.749,-63.8321 140,-54 132.795,-44.8574 122.674,-36.814 113.76,-30.7508"/>
<text text-anchor="middle" x="197.5" y="-57.8" font-family="Times New Roman,serif" font-size="14.00">413.87550209482</text>
</g>
</g>
</svg>
